<?xml version="1.0" encoding="UTF-8" standalone="no"?>
<!DOCTYPE svg PUBLIC "-//W3C//DTD SVG 1.1//EN"
 "http://www.w3.org/Graphics/SVG/1.1/DTD/svg11.dtd">
<!-- Generated by graphviz version 8.0.5 (20230430.1635)
 -->
<!-- Title: Data Pipeline with Amazon EMR Serverless and Amazon MSK Pages: 1 -->
<svg width="1427pt" height="1158pt"
 viewBox="0.00 0.00 1427.20 1158.15" xmlns="http://www.w3.org/2000/svg" xmlns:xlink="http://www.w3.org/1999/xlink">
<g id="graph0" class="graph" transform="scale(1 1) rotate(0) translate(36 1122.15)">
<title>Data Pipeline with Amazon EMR Serverless and Amazon MSK</title>
<polygon fill="white" stroke="none" points="-36,36 -36,-1122.15 1391.2,-1122.15 1391.2,36 -36,36"/>
<text text-anchor="middle" x="677.6" y="-1059.35" font-family="Sans-Serif" font-size="24.00" fill="#2d3436">Data Pipeline with Amazon EMR Serverless and Amazon MSK</text>
<g id="clust1" class="cluster">
<title>cluster_AWS Cloud: region eu&#45;central&#45;1</title>
<path fill="#e5f5fd" stroke="#aeb6be" d="M20,-144.4C20,-144.4 1196.4,-144.4 1196.4,-144.4 1202.4,-144.4 1208.4,-150.4 1208.4,-156.4 1208.4,-156.4 1208.4,-1033.4 1208.4,-1033.4 1208.4,-1039.4 1202.4,-1045.4 1196.4,-1045.4 1196.4,-1045.4 20,-1045.4 20,-1045.4 14,-1045.4 8,-1039.4 8,-1033.4 8,-1033.4 8,-156.4 8,-156.4 8,-150.4 14,-144.4 20,-144.4"/>
<text text-anchor="middle" x="157" y="-1022.4" font-family="Sans-Serif" font-size="20.00" fill="#2d3436">AWS Cloud: region eu&#45;central&#45;1</text>
</g>
<g id="clust2" class="cluster">
<title>cluster_Step Functions</title>
<path fill="#ebf3e7" stroke="#aeb6be" d="M174.8,-296.4C174.8,-296.4 1041.6,-296.4 1041.6,-296.4 1047.6,-296.4 1053.6,-302.4 1053.6,-308.4 1053.6,-308.4 1053.6,-643.4 1053.6,-643.4 1053.6,-649.4 1047.6,-655.4 1041.6,-655.4 1041.6,-655.4 174.8,-655.4 174.8,-655.4 168.8,-655.4 162.8,-649.4 162.8,-643.4 162.8,-643.4 162.8,-308.4 162.8,-308.4 162.8,-302.4 168.8,-296.4 174.8,-296.4"/>
<text text-anchor="middle" x="230.42" y="-634.3" font-family="Sans-Serif" font-size="18.00" fill="#2d3436">Step Functions</text>
</g>
<g id="clust3" class="cluster">
<title>cluster_</title>
<path fill="#ece8f6" stroke="#aeb6be" d="M321.6,-427.4C321.6,-427.4 894.8,-427.4 894.8,-427.4 900.8,-427.4 906.8,-433.4 906.8,-439.4 906.8,-439.4 906.8,-608.4 906.8,-608.4 906.8,-614.4 900.8,-620.4 894.8,-620.4 894.8,-620.4 321.6,-620.4 321.6,-620.4 315.6,-620.4 309.6,-614.4 309.6,-608.4 309.6,-608.4 309.6,-439.4 309.6,-439.4 309.6,-433.4 315.6,-427.4 321.6,-427.4"/>
</g>
<g id="clust4" class="cluster">
<title>cluster_Step 1</title>
<path fill="#fdf7e3" stroke="#aeb6be" d="M329.6,-435.4C329.6,-435.4 577.2,-435.4 577.2,-435.4 583.2,-435.4 589.2,-441.4 589.2,-447.4 589.2,-447.4 589.2,-600.4 589.2,-600.4 589.2,-606.4 583.2,-612.4 577.2,-612.4 577.2,-612.4 329.6,-612.4 329.6,-612.4 323.6,-612.4 317.6,-606.4 317.6,-600.4 317.6,-600.4 317.6,-447.4 317.6,-447.4 317.6,-441.4 323.6,-435.4 329.6,-435.4"/>
<text text-anchor="middle" x="348.85" y="-593.2" font-family="Sans-Serif" font-size="16.00" fill="#2d3436">Step 1</text>
</g>
<g id="clust5" class="cluster">
<title>cluster_Step 2</title>
<path fill="#fdf7e3" stroke="#aeb6be" d="M639.2,-435.4C639.2,-435.4 886.8,-435.4 886.8,-435.4 892.8,-435.4 898.8,-441.4 898.8,-447.4 898.8,-447.4 898.8,-600.4 898.8,-600.4 898.8,-606.4 892.8,-612.4 886.8,-612.4 886.8,-612.4 639.2,-612.4 639.2,-612.4 633.2,-612.4 627.2,-606.4 627.2,-600.4 627.2,-600.4 627.2,-447.4 627.2,-447.4 627.2,-441.4 633.2,-435.4 639.2,-435.4"/>
<text text-anchor="middle" x="658.45" y="-593.2" font-family="Sans-Serif" font-size="16.00" fill="#2d3436">Step 2</text>
</g>
<!-- 19f7edcd30e54ddd9c12ab599c5099fa -->
<g id="node1" class="node">
<title>19f7edcd30e54ddd9c12ab599c5099fa</title>
<image xlink:href="/Users/rayman/opt/mambaforge/envs/pyspark/lib/python3.10/site-packages/resources/aws/analytics/emr.png" width="100.8px" height="100.8px" preserveAspectRatio="xMinYMin meet" x="790" y="-975.8"/>
<text text-anchor="middle" x="840.4" y="-860.4" font-family="Sans-Serif" font-size="16.00" fill="#2d3436">Amazon EMR</text>
<text text-anchor="middle" x="840.4" y="-843.9" font-family="Sans-Serif" font-size="16.00" fill="#2d3436">Serverless</text>
</g>
<!-- 0bc4f495441b40f7a07b33df949da79d -->
<g id="node2" class="node">
<title>0bc4f495441b40f7a07b33df949da79d</title>
<image xlink:href="/Users/rayman/opt/mambaforge/envs/pyspark/lib/python3.10/site-packages/resources/aws/storage/simple-storage-service-s3.png" width="100.8px" height="100.8px" preserveAspectRatio="xMinYMin meet" x="480.4" y="-781.8"/>
<text text-anchor="middle" x="530.8" y="-664.3" font-family="Sans-Serif" font-size="16.00" fill="#2d3436">S3 Silver Bucket</text>
</g>
<!-- fcf0e80cb86d48418bdada61f6845c6c -->
<g id="node9" class="node">
<title>fcf0e80cb86d48418bdada61f6845c6c</title>
<image xlink:href="/Users/rayman/opt/mambaforge/envs/pyspark/lib/python3.10/site-packages/resources/aws/compute/lambda.png" width="100.8px" height="100.8px" preserveAspectRatio="xMinYMin meet" x="635.2" y="-561.8"/>
<text text-anchor="middle" x="685.6" y="-444.3" font-family="Sans-Serif" font-size="16.00" fill="#2d3436">predict_fault</text>
</g>
<!-- 0bc4f495441b40f7a07b33df949da79d&#45;&gt;fcf0e80cb86d48418bdada61f6845c6c -->
<g id="edge4" class="edge">
<title>0bc4f495441b40f7a07b33df949da79d&#45;&gt;fcf0e80cb86d48418bdada61f6845c6c</title>
<path fill="none" stroke="darkgreen" stroke-width="2" d="M580.84,-708.6C617.62,-708.6 661.2,-708.6 661.2,-708.6 661.2,-708.6 661.2,-590.54 661.2,-590.54"/>
<polygon fill="darkgreen" stroke="darkgreen" stroke-width="2" points="664.7,-592.54 661.2,-582.54 657.7,-592.54 664.7,-592.54"/>
</g>
<!-- 8fbdce548a7a4f31abfcd83ce3d2ea10 -->
<g id="node3" class="node">
<title>8fbdce548a7a4f31abfcd83ce3d2ea10</title>
<image xlink:href="/Users/rayman/opt/mambaforge/envs/pyspark/lib/python3.10/site-packages/resources/aws/storage/simple-storage-service-s3.png" width="100.8px" height="100.8px" preserveAspectRatio="xMinYMin meet" x="790" y="-781.8"/>
<text text-anchor="middle" x="840.4" y="-664.3" font-family="Sans-Serif" font-size="16.00" fill="#2d3436">S3 Gold Bucket</text>
</g>
<!-- 9539c328370f4682a185c21e47605cb3 -->
<g id="node17" class="node">
<title>9539c328370f4682a185c21e47605cb3</title>
<image xlink:href="/Users/rayman/opt/mambaforge/envs/pyspark/lib/python3.10/site-packages/resources/aws/compute/lambda.png" width="100.8px" height="100.8px" preserveAspectRatio="xMinYMin meet" x="944.8" y="-782.8"/>
<text text-anchor="middle" x="995.2" y="-665.3" font-family="Sans-Serif" font-size="16.00" fill="#2d3436">query_results</text>
</g>
<!-- 8fbdce548a7a4f31abfcd83ce3d2ea10&#45;&gt;9539c328370f4682a185c21e47605cb3 -->
<g id="edge12" class="edge">
<title>8fbdce548a7a4f31abfcd83ce3d2ea10&#45;&gt;9539c328370f4682a185c21e47605cb3</title>
<path fill="none" stroke="darkgreen" stroke-width="2" d="M890.66,-731.9C890.66,-731.9 933.93,-731.9 933.93,-731.9"/>
<polygon fill="darkgreen" stroke="darkgreen" stroke-width="2" points="931.93,-735.4 941.93,-731.9 931.93,-728.4 931.93,-735.4"/>
</g>
<!-- 417d116665554b9eaeea463153b6ca0d -->
<g id="node4" class="node">
<title>417d116665554b9eaeea463153b6ca0d</title>
<image xlink:href="/Users/rayman/opt/mambaforge/envs/pyspark/lib/python3.10/site-packages/resources/aws/storage/simple-storage-service-s3.png" width="100.8px" height="100.8px" preserveAspectRatio="xMinYMin meet" x="635.2" y="-975.8"/>
<text text-anchor="middle" x="685.6" y="-860.4" font-family="Sans-Serif" font-size="16.00" fill="#2d3436">S3 Bootstrap</text>
<text text-anchor="middle" x="685.6" y="-843.9" font-family="Sans-Serif" font-size="16.00" fill="#2d3436">Bucket</text>
</g>
<!-- 417d116665554b9eaeea463153b6ca0d&#45;&gt;19f7edcd30e54ddd9c12ab599c5099fa -->
<g id="edge19" class="edge">
<title>417d116665554b9eaeea463153b6ca0d&#45;&gt;19f7edcd30e54ddd9c12ab599c5099fa</title>
<path fill="none" stroke="#7b8894" d="M735.86,-925.4C735.86,-925.4 779.13,-925.4 779.13,-925.4"/>
<polygon fill="#7b8894" stroke="#7b8894" points="779.13,-928.9 789.13,-925.4 779.13,-921.9 779.13,-928.9"/>
</g>
<!-- bf882629ae8942b98e5417c7de0cfef6 -->
<g id="node5" class="node">
<title>bf882629ae8942b98e5417c7de0cfef6</title>
<image xlink:href="/Users/rayman/opt/mambaforge/envs/pyspark/lib/python3.10/site-packages/resources/aws/network/api-gateway.png" width="100.8px" height="100.8px" preserveAspectRatio="xMinYMin meet" x="1099.6" y="-782.8"/>
<text text-anchor="middle" x="1150" y="-665.3" font-family="Sans-Serif" font-size="16.00" fill="#2d3436">API Gateway</text>
</g>
<!-- d730ad5594ef49e9a55cca3716554a1e -->
<g id="node18" class="node">
<title>d730ad5594ef49e9a55cca3716554a1e</title>
<image xlink:href="/Users/rayman/opt/mambaforge/envs/pyspark/lib/python3.10/site-packages/resources/aws/general/client.png" width="100.8px" height="100.8px" preserveAspectRatio="xMinYMin meet" x="1254.4" y="-782.8"/>
<text text-anchor="middle" x="1304.8" y="-665.3" font-family="Sans-Serif" font-size="16.00" fill="#2d3436">Clients</text>
</g>
<!-- bf882629ae8942b98e5417c7de0cfef6&#45;&gt;d730ad5594ef49e9a55cca3716554a1e -->
<g id="edge14" class="edge">
<title>bf882629ae8942b98e5417c7de0cfef6&#45;&gt;d730ad5594ef49e9a55cca3716554a1e</title>
<path fill="none" stroke="darkgreen" stroke-width="2" d="M1200.26,-732.4C1200.26,-732.4 1243.53,-732.4 1243.53,-732.4"/>
<polygon fill="darkgreen" stroke="darkgreen" stroke-width="2" points="1241.53,-735.9 1251.53,-732.4 1241.53,-728.9 1241.53,-735.9"/>
</g>
<!-- c3c742e0165c4793bf090a97e67583ca -->
<g id="node6" class="node">
<title>c3c742e0165c4793bf090a97e67583ca</title>
<image xlink:href="/Users/rayman/opt/mambaforge/envs/pyspark/lib/python3.10/site-packages/resources/aws/integration/step-functions.png" width="100.8px" height="100.8px" preserveAspectRatio="xMinYMin meet" x="170.8" y="-561.8"/>
<text text-anchor="middle" x="221.2" y="-444.3" font-family="Sans-Serif" font-size="16.00" fill="#2d3436">Orchestrate state machine</text>
</g>
<!-- 149749348f6e4c7c8b3bb96af7740037 -->
<g id="node7" class="node">
<title>149749348f6e4c7c8b3bb96af7740037</title>
<image xlink:href="/Users/rayman/opt/mambaforge/envs/pyspark/lib/python3.10/site-packages/resources/aws/compute/lambda.png" width="100.8px" height="100.8px" preserveAspectRatio="xMinYMin meet" x="325.6" y="-561.8"/>
<text text-anchor="middle" x="376" y="-444.3" font-family="Sans-Serif" font-size="16.00" fill="#2d3436">ingest_data</text>
</g>
<!-- c3c742e0165c4793bf090a97e67583ca&#45;&gt;149749348f6e4c7c8b3bb96af7740037 -->
<g id="edge7" class="edge">
<title>c3c742e0165c4793bf090a97e67583ca&#45;&gt;149749348f6e4c7c8b3bb96af7740037</title>
<path fill="none" stroke="#7b8894" stroke-width="2" d="M271.46,-511.4C271.46,-511.4 314.73,-511.4 314.73,-511.4"/>
<polygon fill="#7b8894" stroke="#7b8894" stroke-width="2" points="312.73,-514.9 322.73,-511.4 312.73,-507.9 312.73,-514.9"/>
</g>
<!-- 149749348f6e4c7c8b3bb96af7740037&#45;&gt;19f7edcd30e54ddd9c12ab599c5099fa -->
<g id="edge20" class="edge">
<title>149749348f6e4c7c8b3bb96af7740037&#45;&gt;19f7edcd30e54ddd9c12ab599c5099fa</title>
<path fill="none" stroke="darkorange" stroke-width="2" d="M360.2,-590.46C360.2,-590.46 360.2,-828.67 360.2,-828.67 360.2,-828.67 824.2,-828.67 824.2,-828.67 824.2,-828.67 824.2,-831.94 824.2,-831.94"/>
<polygon fill="darkorange" stroke="darkorange" stroke-width="2" points="363.7,-592.46 360.2,-582.46 356.7,-592.46 363.7,-592.46"/>
<polygon fill="darkorange" stroke="darkorange" stroke-width="2" points="820.7,-829.94 824.2,-839.94 827.7,-829.94 820.7,-829.94"/>
</g>
<!-- 149749348f6e4c7c8b3bb96af7740037&#45;&gt;0bc4f495441b40f7a07b33df949da79d -->
<g id="edge3" class="edge">
<title>149749348f6e4c7c8b3bb96af7740037&#45;&gt;0bc4f495441b40f7a07b33df949da79d</title>
<path fill="none" stroke="darkgreen" stroke-width="2" d="M393.2,-579.5C393.2,-644.11 393.2,-731.4 393.2,-731.4 393.2,-731.4 469.73,-731.4 469.73,-731.4"/>
<polygon fill="darkgreen" stroke="darkgreen" stroke-width="2" points="467.73,-734.9 477.73,-731.4 467.73,-727.9 467.73,-734.9"/>
</g>
<!-- 84dee389d7e64614a7dbea4807280df7 -->
<g id="node8" class="node">
<title>84dee389d7e64614a7dbea4807280df7</title>
<image xlink:href="/Users/rayman/opt/mambaforge/envs/pyspark/lib/python3.10/site-packages/resources/aws/compute/lambda.png" width="100.8px" height="100.8px" preserveAspectRatio="xMinYMin meet" x="480.4" y="-561.8"/>
<text text-anchor="middle" x="530.8" y="-444.3" font-family="Sans-Serif" font-size="16.00" fill="#2d3436">get_ingest_data_status</text>
</g>
<!-- 149749348f6e4c7c8b3bb96af7740037&#45;&gt;84dee389d7e64614a7dbea4807280df7 -->
<g id="edge8" class="edge">
<title>149749348f6e4c7c8b3bb96af7740037&#45;&gt;84dee389d7e64614a7dbea4807280df7</title>
<path fill="none" stroke="#7b8894" stroke-width="2" d="M426.26,-511.4C426.26,-511.4 469.53,-511.4 469.53,-511.4"/>
<polygon fill="#7b8894" stroke="#7b8894" stroke-width="2" points="467.53,-514.9 477.53,-511.4 467.53,-507.9 467.53,-514.9"/>
</g>
<!-- e1567943207149e88a9ac97ed51f813b -->
<g id="node12" class="node">
<title>e1567943207149e88a9ac97ed51f813b</title>
<image xlink:href="/Users/rayman/opt/mambaforge/envs/pyspark/lib/python3.10/site-packages/resources/aws/compute/lambda.png" width="100.8px" height="100.8px" preserveAspectRatio="xMinYMin meet" x="944.8" y="-422.8"/>
<text text-anchor="middle" x="995.2" y="-305.3" font-family="Sans-Serif" font-size="16.00" fill="#2d3436">notify_failure</text>
</g>
<!-- 149749348f6e4c7c8b3bb96af7740037&#45;&gt;e1567943207149e88a9ac97ed51f813b -->
<g id="edge15" class="edge">
<title>149749348f6e4c7c8b3bb96af7740037&#45;&gt;e1567943207149e88a9ac97ed51f813b</title>
<path fill="none" stroke="#7b8894" d="M402.2,-443.44C402.2,-394.92 402.2,-338.2 402.2,-338.2 402.2,-338.2 933.9,-338.2 933.9,-338.2"/>
<polygon fill="#7b8894" stroke="#7b8894" points="933.9,-341.7 943.9,-338.2 933.9,-334.7 933.9,-341.7"/>
</g>
<!-- 38f54e34b3824f1191b69b7743857a87 -->
<g id="node16" class="node">
<title>38f54e34b3824f1191b69b7743857a87</title>
<image xlink:href="/Users/rayman/opt/mambaforge/envs/pyspark/lib/python3.10/site-packages/resources/aws/management/systems-manager.png" width="100.8px" height="100.8px" preserveAspectRatio="xMinYMin meet" x="1099.6" y="-338.8"/>
<text text-anchor="middle" x="1150" y="-221.3" font-family="Sans-Serif" font-size="16.00" fill="#2d3436">SM Parameter Store</text>
</g>
<!-- 149749348f6e4c7c8b3bb96af7740037&#45;&gt;38f54e34b3824f1191b69b7743857a87 -->
<g id="edge23" class="edge">
<title>149749348f6e4c7c8b3bb96af7740037&#45;&gt;38f54e34b3824f1191b69b7743857a87</title>
<path fill="none" stroke="#7b8894" d="M376.2,-432.17C376.2,-432.17 376.2,-293.87 376.2,-293.87 376.2,-293.87 928.36,-293.87 1099.83,-293.87"/>
<polygon fill="#7b8894" stroke="#7b8894" points="372.7,-432.17 376.2,-442.17 379.7,-432.17 372.7,-432.17"/>
</g>
<!-- 84dee389d7e64614a7dbea4807280df7&#45;&gt;fcf0e80cb86d48418bdada61f6845c6c -->
<g id="edge9" class="edge">
<title>84dee389d7e64614a7dbea4807280df7&#45;&gt;fcf0e80cb86d48418bdada61f6845c6c</title>
<path fill="none" stroke="#7b8894" stroke-width="2" d="M581.06,-511.4C581.06,-511.4 624.33,-511.4 624.33,-511.4"/>
<polygon fill="#7b8894" stroke="#7b8894" stroke-width="2" points="622.33,-514.9 632.33,-511.4 622.33,-507.9 622.33,-514.9"/>
</g>
<!-- 84dee389d7e64614a7dbea4807280df7&#45;&gt;e1567943207149e88a9ac97ed51f813b -->
<g id="edge16" class="edge">
<title>84dee389d7e64614a7dbea4807280df7&#45;&gt;e1567943207149e88a9ac97ed51f813b</title>
<path fill="none" stroke="#7b8894" d="M531.2,-443.12C531.2,-407.97 531.2,-372.4 531.2,-372.4 531.2,-372.4 934.1,-372.4 934.1,-372.4"/>
<polygon fill="#7b8894" stroke="#7b8894" points="934.1,-375.9 944.1,-372.4 934.1,-368.9 934.1,-375.9"/>
</g>
<!-- fcf0e80cb86d48418bdada61f6845c6c&#45;&gt;19f7edcd30e54ddd9c12ab599c5099fa -->
<g id="edge21" class="edge">
<title>fcf0e80cb86d48418bdada61f6845c6c&#45;&gt;19f7edcd30e54ddd9c12ab599c5099fa</title>
<path fill="none" stroke="darkorange" stroke-width="2" d="M686.2,-590.47C686.2,-590.47 686.2,-814.73 686.2,-814.73 686.2,-814.73 858.2,-814.73 858.2,-814.73 858.2,-814.73 858.2,-831.66 858.2,-831.66"/>
<polygon fill="darkorange" stroke="darkorange" stroke-width="2" points="689.7,-592.47 686.2,-582.47 682.7,-592.47 689.7,-592.47"/>
<polygon fill="darkorange" stroke="darkorange" stroke-width="2" points="854.7,-829.66 858.2,-839.66 861.7,-829.66 854.7,-829.66"/>
</g>
<!-- fcf0e80cb86d48418bdada61f6845c6c&#45;&gt;8fbdce548a7a4f31abfcd83ce3d2ea10 -->
<g id="edge5" class="edge">
<title>fcf0e80cb86d48418bdada61f6845c6c&#45;&gt;8fbdce548a7a4f31abfcd83ce3d2ea10</title>
<path fill="none" stroke="darkgreen" stroke-width="2" d="M711.2,-579.68C711.2,-651.49 711.2,-754.2 711.2,-754.2 711.2,-754.2 779.08,-754.2 779.08,-754.2"/>
<polygon fill="darkgreen" stroke="darkgreen" stroke-width="2" points="777.08,-757.7 787.08,-754.2 777.08,-750.7 777.08,-757.7"/>
</g>
<!-- f705c214178e4d308fd02f2eb7aa937f -->
<g id="node10" class="node">
<title>f705c214178e4d308fd02f2eb7aa937f</title>
<image xlink:href="/Users/rayman/opt/mambaforge/envs/pyspark/lib/python3.10/site-packages/resources/aws/compute/lambda.png" width="100.8px" height="100.8px" preserveAspectRatio="xMinYMin meet" x="790" y="-561.8"/>
<text text-anchor="middle" x="840.4" y="-444.3" font-family="Sans-Serif" font-size="16.00" fill="#2d3436">get_predict_fault_status</text>
</g>
<!-- fcf0e80cb86d48418bdada61f6845c6c&#45;&gt;f705c214178e4d308fd02f2eb7aa937f -->
<g id="edge10" class="edge">
<title>fcf0e80cb86d48418bdada61f6845c6c&#45;&gt;f705c214178e4d308fd02f2eb7aa937f</title>
<path fill="none" stroke="#7b8894" stroke-width="2" d="M735.86,-511.4C735.86,-511.4 779.13,-511.4 779.13,-511.4"/>
<polygon fill="#7b8894" stroke="#7b8894" stroke-width="2" points="777.13,-514.9 787.13,-511.4 777.13,-507.9 777.13,-514.9"/>
</g>
<!-- fcf0e80cb86d48418bdada61f6845c6c&#45;&gt;e1567943207149e88a9ac97ed51f813b -->
<g id="edge17" class="edge">
<title>fcf0e80cb86d48418bdada61f6845c6c&#45;&gt;e1567943207149e88a9ac97ed51f813b</title>
<path fill="none" stroke="#7b8894" d="M703.2,-443.25C703.2,-423.24 703.2,-406.6 703.2,-406.6 703.2,-406.6 934,-406.6 934,-406.6"/>
<polygon fill="#7b8894" stroke="#7b8894" points="934,-410.1 944,-406.6 934,-403.1 934,-410.1"/>
</g>
<!-- fcf0e80cb86d48418bdada61f6845c6c&#45;&gt;38f54e34b3824f1191b69b7743857a87 -->
<g id="edge24" class="edge">
<title>fcf0e80cb86d48418bdada61f6845c6c&#45;&gt;38f54e34b3824f1191b69b7743857a87</title>
<path fill="none" stroke="#7b8894" d="M669.2,-432C669.2,-432 669.2,-298.93 669.2,-298.93 669.2,-298.93 976.76,-298.93 1099.91,-298.93"/>
<polygon fill="#7b8894" stroke="#7b8894" points="665.7,-432 669.2,-442 672.7,-432 665.7,-432"/>
</g>
<!-- 5bf8db9b8e43480696cc3ed5f8378f5a -->
<g id="node11" class="node">
<title>5bf8db9b8e43480696cc3ed5f8378f5a</title>
<image xlink:href="/Users/rayman/opt/mambaforge/envs/pyspark/lib/python3.10/site-packages/resources/aws/compute/lambda.png" width="100.8px" height="100.8px" preserveAspectRatio="xMinYMin meet" x="944.8" y="-602.8"/>
<text text-anchor="middle" x="995.2" y="-485.3" font-family="Sans-Serif" font-size="16.00" fill="#2d3436">notify_success</text>
</g>
<!-- f705c214178e4d308fd02f2eb7aa937f&#45;&gt;5bf8db9b8e43480696cc3ed5f8378f5a -->
<g id="edge11" class="edge">
<title>f705c214178e4d308fd02f2eb7aa937f&#45;&gt;5bf8db9b8e43480696cc3ed5f8378f5a</title>
<path fill="none" stroke="#7b8894" stroke-width="2" d="M890.66,-531.9C890.66,-531.9 933.93,-531.9 933.93,-531.9"/>
<polygon fill="#7b8894" stroke="#7b8894" stroke-width="2" points="931.93,-535.4 941.93,-531.9 931.93,-528.4 931.93,-535.4"/>
</g>
<!-- f705c214178e4d308fd02f2eb7aa937f&#45;&gt;e1567943207149e88a9ac97ed51f813b -->
<g id="edge18" class="edge">
<title>f705c214178e4d308fd02f2eb7aa937f&#45;&gt;e1567943207149e88a9ac97ed51f813b</title>
<path fill="none" stroke="#7b8894" d="M890.51,-449.5C930.27,-449.5 979.2,-449.5 979.2,-449.5 979.2,-449.5 979.2,-448.62 979.2,-448.62"/>
<polygon fill="#7b8894" stroke="#7b8894" points="982.7,-451.66 979.2,-441.66 975.7,-451.66 982.7,-451.66"/>
</g>
<!-- dfb557ddf5344fc09a836c3f40aa5706 -->
<g id="node14" class="node">
<title>dfb557ddf5344fc09a836c3f40aa5706</title>
<image xlink:href="/Users/rayman/opt/mambaforge/envs/pyspark/lib/python3.10/site-packages/resources/aws/integration/simple-notification-service-sns.png" width="100.8px" height="100.8px" preserveAspectRatio="xMinYMin meet" x="1099.6" y="-574.8"/>
<text text-anchor="middle" x="1150" y="-457.3" font-family="Sans-Serif" font-size="16.00" fill="#2d3436">SNS</text>
</g>
<!-- 5bf8db9b8e43480696cc3ed5f8378f5a&#45;&gt;dfb557ddf5344fc09a836c3f40aa5706 -->
<g id="edge27" class="edge">
<title>5bf8db9b8e43480696cc3ed5f8378f5a&#45;&gt;dfb557ddf5344fc09a836c3f40aa5706</title>
<path fill="none" stroke="#7b8894" d="M1045.46,-556.53C1045.46,-556.53 1088.73,-556.53 1088.73,-556.53"/>
<polygon fill="#7b8894" stroke="#7b8894" points="1088.73,-560.03 1098.73,-556.53 1088.73,-553.03 1088.73,-560.03"/>
</g>
<!-- 5bf8db9b8e43480696cc3ed5f8378f5a&#45;&gt;38f54e34b3824f1191b69b7743857a87 -->
<g id="edge25" class="edge">
<title>5bf8db9b8e43480696cc3ed5f8378f5a&#45;&gt;38f54e34b3824f1191b69b7743857a87</title>
<path fill="none" stroke="#7b8894" d="M1056.48,-520.27C1056.48,-520.27 1073.2,-520.27 1073.2,-520.27 1073.2,-520.27 1073.2,-339.2 1073.2,-339.2 1073.2,-339.2 1085.15,-339.2 1099.63,-339.2"/>
<polygon fill="#7b8894" stroke="#7b8894" points="1056.48,-516.77 1046.48,-520.27 1056.48,-523.77 1056.48,-516.77"/>
</g>
<!-- e1567943207149e88a9ac97ed51f813b&#45;&gt;dfb557ddf5344fc09a836c3f40aa5706 -->
<g id="edge28" class="edge">
<title>e1567943207149e88a9ac97ed51f813b&#45;&gt;dfb557ddf5344fc09a836c3f40aa5706</title>
<path fill="none" stroke="#7b8894" d="M1012.2,-440.72C1012.2,-457.12 1012.2,-470 1012.2,-470 1012.2,-470 1088.86,-470 1088.86,-470"/>
<polygon fill="#7b8894" stroke="#7b8894" points="1088.86,-473.5 1098.86,-470 1088.86,-466.5 1088.86,-473.5"/>
</g>
<!-- e1567943207149e88a9ac97ed51f813b&#45;&gt;38f54e34b3824f1191b69b7743857a87 -->
<g id="edge26" class="edge">
<title>e1567943207149e88a9ac97ed51f813b&#45;&gt;38f54e34b3824f1191b69b7743857a87</title>
<path fill="none" stroke="#7b8894" d="M1056.46,-321.6C1056.46,-321.6 1099.73,-321.6 1099.73,-321.6"/>
<polygon fill="#7b8894" stroke="#7b8894" points="1056.46,-318.1 1046.46,-321.6 1056.46,-325.1 1056.46,-318.1"/>
</g>
<!-- 5df9d182132040a5a93a6f825e800de1 -->
<g id="node13" class="node">
<title>5df9d182132040a5a93a6f825e800de1</title>
<image xlink:href="/Users/rayman/opt/mambaforge/envs/pyspark/lib/python3.10/site-packages/resources/aws/integration/eventbridge.png" width="100.8px" height="100.8px" preserveAspectRatio="xMinYMin meet" x="16" y="-561.8"/>
<text text-anchor="middle" x="66.4" y="-444.3" font-family="Sans-Serif" font-size="16.00" fill="#2d3436">EventBridge</text>
</g>
<!-- 5df9d182132040a5a93a6f825e800de1&#45;&gt;c3c742e0165c4793bf090a97e67583ca -->
<g id="edge6" class="edge">
<title>5df9d182132040a5a93a6f825e800de1&#45;&gt;c3c742e0165c4793bf090a97e67583ca</title>
<path fill="none" stroke="#7b8894" stroke-width="2" d="M116.66,-511.4C116.66,-511.4 159.93,-511.4 159.93,-511.4"/>
<polygon fill="#7b8894" stroke="#7b8894" stroke-width="2" points="157.93,-514.9 167.93,-511.4 157.93,-507.9 157.93,-514.9"/>
</g>
<!-- 435c4caeff1b4b898c7f583327a99c26 -->
<g id="node19" class="node">
<title>435c4caeff1b4b898c7f583327a99c26</title>
<image xlink:href="/Users/rayman/opt/mambaforge/envs/pyspark/lib/python3.10/site-packages/resources/aws/general/users.png" width="100.8px" height="100.8px" preserveAspectRatio="xMinYMin meet" x="1254.4" y="-574.8"/>
<text text-anchor="middle" x="1304.8" y="-457.3" font-family="Sans-Serif" font-size="16.00" fill="#2d3436">Users</text>
</g>
<!-- dfb557ddf5344fc09a836c3f40aa5706&#45;&gt;435c4caeff1b4b898c7f583327a99c26 -->
<g id="edge22" class="edge">
<title>dfb557ddf5344fc09a836c3f40aa5706&#45;&gt;435c4caeff1b4b898c7f583327a99c26</title>
<path fill="none" stroke="#7b8894" d="M1200.26,-524.4C1200.26,-524.4 1243.53,-524.4 1243.53,-524.4"/>
<polygon fill="#7b8894" stroke="#7b8894" points="1243.53,-527.9 1253.53,-524.4 1243.53,-520.9 1243.53,-527.9"/>
</g>
<!-- 2444985fdfdd4bcd9c62998c483a57b7 -->
<g id="node15" class="node">
<title>2444985fdfdd4bcd9c62998c483a57b7</title>
<image xlink:href="/Users/rayman/opt/mambaforge/envs/pyspark/lib/python3.10/site-packages/resources/aws/analytics/managed-streaming-for-kafka.png" width="100.8px" height="100.8px" preserveAspectRatio="xMinYMin meet" x="170.8" y="-270.8"/>
<text text-anchor="middle" x="221.2" y="-153.3" font-family="Sans-Serif" font-size="16.00" fill="#2d3436">Amazon MSK</text>
</g>
<!-- 2444985fdfdd4bcd9c62998c483a57b7&#45;&gt;149749348f6e4c7c8b3bb96af7740037 -->
<g id="edge2" class="edge">
<title>2444985fdfdd4bcd9c62998c483a57b7&#45;&gt;149749348f6e4c7c8b3bb96af7740037</title>
<path fill="none" stroke="darkgreen" stroke-width="2" d="M271.46,-254.4C308.04,-254.4 351.2,-254.4 351.2,-254.4 351.2,-254.4 351.2,-432.2 351.2,-432.2"/>
<polygon fill="darkgreen" stroke="darkgreen" stroke-width="2" points="347.7,-430.2 351.2,-440.2 354.7,-430.2 347.7,-430.2"/>
</g>
<!-- 9539c328370f4682a185c21e47605cb3&#45;&gt;bf882629ae8942b98e5417c7de0cfef6 -->
<g id="edge13" class="edge">
<title>9539c328370f4682a185c21e47605cb3&#45;&gt;bf882629ae8942b98e5417c7de0cfef6</title>
<path fill="none" stroke="darkgreen" stroke-width="2" d="M1045.46,-732.4C1045.46,-732.4 1088.73,-732.4 1088.73,-732.4"/>
<polygon fill="darkgreen" stroke="darkgreen" stroke-width="2" points="1086.73,-735.9 1096.73,-732.4 1086.73,-728.9 1086.73,-735.9"/>
</g>
<!-- a29a4c80426743968cabb4d20504a2f9 -->
<g id="node20" class="node">
<title>a29a4c80426743968cabb4d20504a2f9</title>
<image xlink:href="/Users/rayman/opt/mambaforge/envs/pyspark/lib/python3.10/site-packages/resources/aws/iot/iot-factory.png" width="100.8px" height="100.8px" preserveAspectRatio="xMinYMin meet" x="16" y="-118.8"/>
<text text-anchor="middle" x="66.4" y="-1.3" font-family="Sans-Serif" font-size="16.00" fill="#2d3436">SCADA</text>
</g>
<!-- a29a4c80426743968cabb4d20504a2f9&#45;&gt;2444985fdfdd4bcd9c62998c483a57b7 -->
<g id="edge1" class="edge">
<title>a29a4c80426743968cabb4d20504a2f9&#45;&gt;2444985fdfdd4bcd9c62998c483a57b7</title>
<path fill="none" stroke="darkgreen" stroke-width="2" d="M116.55,-68.4C162.1,-68.4 222.2,-68.4 222.2,-68.4 222.2,-68.4 222.2,-141.4 222.2,-141.4"/>
<polygon fill="darkgreen" stroke="darkgreen" stroke-width="2" points="218.7,-139.4 222.2,-149.4 225.7,-139.4 218.7,-139.4"/>
</g>
</g>
</svg>
