<!DOCTYPE svg PUBLIC "-//W3C//DTD SVG 1.1//EN" "https://www.w3.org/Graphics/SVG/1.1/DTD/svg11.dtd"><svg xmlns="http://www.w3.org/2000/svg" class="sc-hKdnnL dmfLKr graph" data-testid="graph" role="img" aria-labelledby="polymath-graph-title" width="1336" height="1170"><title id="polymath-graph-title">Workflow Studio State Machine Graph</title><g transform="translate(12,12)" class="new-look-graph"><g class="nodes"><g class="node-container" transform="translate(861,22)"><g><circle class="sc-gUAEMC nddC shape" r="22"/><text class="sc-hjriPb kjkSOY label"><tspan xml:space="preserve" text-anchor="middle" alignment-baseline="central">Start</tspan></text></g></g><g class="node-container" transform="translate(861,103.5)"><g class="sc-yeoIj gTYSVF node state Task" data-testid="graph-IngestData" data-state-id="IngestData" data-state-type="Task"><g class="new-look-state-node "><rect x="-120" y="-24.5" width="240" height="49" rx="3" ry="3"/><g class="handle" transform="translate(-120,-24.5)"><path d="M5,16 L5,34 M8,16 L8,34"/></g><g class="icon" transform="translate(-104,-24)"><rect fill="var(--color-background-container-header-g9rg0j, #fafafa)" x="0.0361026108" y="0.0181291967" width="48" height="48"/><line x1="47.5" y1="0.49122807" x2="47.5" y2="47.5" stroke="var(--color-text-home-header-secondary-g5rqe4, #d5dbdb)" stroke-linecap="square"/><line x1="0.5" y1="0.49122807" x2="0.5" y2="47.5" stroke="var(--color-text-home-header-secondary-g5rqe4, #d5dbdb)" stroke-linecap="square"/><use href="#icon-service-lam"><title>Lambda</title></use></g><g class="text-lines" transform="translate(-48,-24.5)"><text transform="translate(0,17)" class="line1"><tspan xml:space="preserve" text-anchor="start">Lambda: Invoke</tspan></text><text transform="translate(0,35.5)" class="line2 label"><tspan xml:space="preserve" text-anchor="start">IngestData</tspan></text></g></g></g></g><g class="node-container" transform="translate(783.5,187.5)"><g class="sc-yeoIj gTYSVF node state Wait" data-testid="graph-WaitForIngestData" data-state-id="WaitForIngestData" data-state-type="Wait"><g class="new-look-state-node "><rect x="-120" y="-24.5" width="240" height="49" rx="3" ry="3"/><g class="handle" transform="translate(-120,-24.5)"><path d="M5,16 L5,34 M8,16 L8,34"/></g><g class="icon" transform="translate(-104,-24)"><rect fill="var(--color-background-container-header-g9rg0j, #fafafa)" x="0.0361026108" y="0.0181291967" width="48" height="48"/><line x1="47.5" y1="0.49122807" x2="47.5" y2="47.5" stroke="var(--color-text-home-header-secondary-g5rqe4, #d5dbdb)" stroke-linecap="square"/><line x1="0.5" y1="0.49122807" x2="0.5" y2="47.5" stroke="var(--color-text-home-header-secondary-g5rqe4, #d5dbdb)" stroke-linecap="square"/><use href="#icon-flow-wait"/></g><g class="text-lines" transform="translate(-48,-24.5)"><text transform="translate(0,17)" class="line1"><tspan xml:space="preserve" text-anchor="start">Wait state</tspan></text><text transform="translate(0,35.5)" class="line2 label"><tspan xml:space="preserve" text-anchor="start">WaitForIngestData</tspan></text></g></g></g></g><g class="node-container" transform="translate(812,958.5)"><g class="sc-yeoIj gTYSVF node state Task" data-testid="graph-NotifyFailure" data-state-id="NotifyFailure" data-state-type="Task"><g class="new-look-state-node "><rect x="-120" y="-24.5" width="240" height="49" rx="3" ry="3"/><g class="handle" transform="translate(-120,-24.5)"><path d="M5,16 L5,34 M8,16 L8,34"/></g><g class="icon" transform="translate(-104,-24)"><rect fill="var(--color-background-container-header-g9rg0j, #fafafa)" x="0.0361026108" y="0.0181291967" width="48" height="48"/><line x1="47.5" y1="0.49122807" x2="47.5" y2="47.5" stroke="var(--color-text-home-header-secondary-g5rqe4, #d5dbdb)" stroke-linecap="square"/><line x1="0.5" y1="0.49122807" x2="0.5" y2="47.5" stroke="var(--color-text-home-header-secondary-g5rqe4, #d5dbdb)" stroke-linecap="square"/><use href="#icon-service-lam"><title>Lambda</title></use></g><g class="text-lines" transform="translate(-48,-24.5)"><text transform="translate(0,17)" class="line1"><tspan xml:space="preserve" text-anchor="start">Lambda: Invoke</tspan></text><text transform="translate(0,35.5)" class="line2 label"><tspan xml:space="preserve" text-anchor="start">NotifyFailure</tspan></text></g></g></g></g><g class="node-container" transform="translate(706,271.5)"><g class="sc-yeoIj gTYSVF node state Task" data-testid="graph-GetIngestDataStatus" data-state-id="GetIngestDataStatus" data-state-type="Task"><g class="new-look-state-node "><rect x="-120" y="-24.5" width="240" height="49" rx="3" ry="3"/><g class="handle" transform="translate(-120,-24.5)"><path d="M5,16 L5,34 M8,16 L8,34"/></g><g class="icon" transform="translate(-104,-24)"><rect fill="var(--color-background-container-header-g9rg0j, #fafafa)" x="0.0361026108" y="0.0181291967" width="48" height="48"/><line x1="47.5" y1="0.49122807" x2="47.5" y2="47.5" stroke="var(--color-text-home-header-secondary-g5rqe4, #d5dbdb)" stroke-linecap="square"/><line x1="0.5" y1="0.49122807" x2="0.5" y2="47.5" stroke="var(--color-text-home-header-secondary-g5rqe4, #d5dbdb)" stroke-linecap="square"/><use href="#icon-service-lam"><title>Lambda</title></use></g><g class="text-lines" transform="translate(-48,-24.5)"><text transform="translate(0,17)" class="line1"><tspan xml:space="preserve" text-anchor="start">Lambda: Invoke</tspan></text><text transform="translate(0,35.5)" class="line2 label"><tspan xml:space="preserve" text-anchor="start">GetIngestDataStatus</tspan></text></g></g></g></g><g class="node-container" transform="translate(609,355.5)"><g class="sc-yeoIj gTYSVF node state Choice" data-testid="graph-CheckIngestDataStatus" data-state-id="CheckIngestDataStatus" data-state-type="Choice"><g class="new-look-state-node "><rect x="-120" y="-24.5" width="240" height="49" rx="3" ry="3"/><g class="handle" transform="translate(-120,-24.5)"><path d="M5,16 L5,34 M8,16 L8,34"/></g><g class="icon" transform="translate(-104,-24)"><rect fill="var(--color-background-container-header-g9rg0j, #fafafa)" x="0.0361026108" y="0.0181291967" width="48" height="48"/><line x1="47.5" y1="0.49122807" x2="47.5" y2="47.5" stroke="var(--color-text-home-header-secondary-g5rqe4, #d5dbdb)" stroke-linecap="square"/><line x1="0.5" y1="0.49122807" x2="0.5" y2="47.5" stroke="var(--color-text-home-header-secondary-g5rqe4, #d5dbdb)" stroke-linecap="square"/><use href="#icon-flow-choice"/></g><g class="text-lines" transform="translate(-48,-24.5)"><text transform="translate(0,17)" class="line1"><tspan xml:space="preserve" text-anchor="start">Choice state</tspan></text><text transform="translate(0,35.5)" class="line2 label"><tspan xml:space="preserve" text-anchor="start">CheckIngestDataStatus</tspan></text></g></g></g></g><g class="node-container" transform="translate(500,456)"><g class="sc-yeoIj gTYSVF node state Task" data-testid="graph-PredictFault" data-state-id="PredictFault" data-state-type="Task"><g class="new-look-state-node "><rect x="-120" y="-24.5" width="240" height="49" rx="3" ry="3"/><g class="handle" transform="translate(-120,-24.5)"><path d="M5,16 L5,34 M8,16 L8,34"/></g><g class="icon" transform="translate(-104,-24)"><rect fill="var(--color-background-container-header-g9rg0j, #fafafa)" x="0.0361026108" y="0.0181291967" width="48" height="48"/><line x1="47.5" y1="0.49122807" x2="47.5" y2="47.5" stroke="var(--color-text-home-header-secondary-g5rqe4, #d5dbdb)" stroke-linecap="square"/><line x1="0.5" y1="0.49122807" x2="0.5" y2="47.5" stroke="var(--color-text-home-header-secondary-g5rqe4, #d5dbdb)" stroke-linecap="square"/><use href="#icon-service-lam"><title>Lambda</title></use></g><g class="text-lines" transform="translate(-48,-24.5)"><text transform="translate(0,17)" class="line1"><tspan xml:space="preserve" text-anchor="start">Lambda: Invoke</tspan></text><text transform="translate(0,35.5)" class="line2 label"><tspan xml:space="preserve" text-anchor="start">PredictFault</tspan></text></g></g></g></g><g class="node-container" transform="translate(422.5,556.5)"><g class="sc-yeoIj gTYSVF node state Wait" data-testid="graph-WaitForPredictFault" data-state-id="WaitForPredictFault" data-state-type="Wait"><g class="new-look-state-node "><rect x="-120" y="-24.5" width="240" height="49" rx="3" ry="3"/><g class="handle" transform="translate(-120,-24.5)"><path d="M5,16 L5,34 M8,16 L8,34"/></g><g class="icon" transform="translate(-104,-24)"><rect fill="var(--color-background-container-header-g9rg0j, #fafafa)" x="0.0361026108" y="0.0181291967" width="48" height="48"/><line x1="47.5" y1="0.49122807" x2="47.5" y2="47.5" stroke="var(--color-text-home-header-secondary-g5rqe4, #d5dbdb)" stroke-linecap="square"/><line x1="0.5" y1="0.49122807" x2="0.5" y2="47.5" stroke="var(--color-text-home-header-secondary-g5rqe4, #d5dbdb)" stroke-linecap="square"/><use href="#icon-flow-wait"/></g><g class="text-lines" transform="translate(-48,-24.5)"><text transform="translate(0,17)" class="line1"><tspan xml:space="preserve" text-anchor="start">Wait state</tspan></text><text transform="translate(0,35.5)" class="line2 label"><tspan xml:space="preserve" text-anchor="start">WaitForPredictFault</tspan></text></g></g></g></g><g class="node-container" transform="translate(345,657)"><g class="sc-yeoIj gTYSVF node state Task" data-testid="graph-GetPredictFaultStatus" data-state-id="GetPredictFaultStatus" data-state-type="Task"><g class="new-look-state-node "><rect x="-120" y="-24.5" width="240" height="49" rx="3" ry="3"/><g class="handle" transform="translate(-120,-24.5)"><path d="M5,16 L5,34 M8,16 L8,34"/></g><g class="icon" transform="translate(-104,-24)"><rect fill="var(--color-background-container-header-g9rg0j, #fafafa)" x="0.0361026108" y="0.0181291967" width="48" height="48"/><line x1="47.5" y1="0.49122807" x2="47.5" y2="47.5" stroke="var(--color-text-home-header-secondary-g5rqe4, #d5dbdb)" stroke-linecap="square"/><line x1="0.5" y1="0.49122807" x2="0.5" y2="47.5" stroke="var(--color-text-home-header-secondary-g5rqe4, #d5dbdb)" stroke-linecap="square"/><use href="#icon-service-lam"><title>Lambda</title></use></g><g class="text-lines" transform="translate(-48,-24.5)"><text transform="translate(0,17)" class="line1"><tspan xml:space="preserve" text-anchor="start">Lambda: Invoke</tspan></text><text transform="translate(0,35.5)" class="line2 label"><tspan xml:space="preserve" text-anchor="start">GetPredictFaultStatus</tspan></text></g></g></g></g><g class="node-container" transform="translate(246,757.5)"><g class="sc-yeoIj gTYSVF node state Choice" data-testid="graph-CheckPredictFaultStatus" data-state-id="CheckPredictFaultStatus" data-state-type="Choice"><g class="new-look-state-node "><rect x="-120" y="-24.5" width="240" height="49" rx="3" ry="3"/><g class="handle" transform="translate(-120,-24.5)"><path d="M5,16 L5,34 M8,16 L8,34"/></g><g class="icon" transform="translate(-104,-24)"><rect fill="var(--color-background-container-header-g9rg0j, #fafafa)" x="0.0361026108" y="0.0181291967" width="48" height="48"/><line x1="47.5" y1="0.49122807" x2="47.5" y2="47.5" stroke="var(--color-text-home-header-secondary-g5rqe4, #d5dbdb)" stroke-linecap="square"/><line x1="0.5" y1="0.49122807" x2="0.5" y2="47.5" stroke="var(--color-text-home-header-secondary-g5rqe4, #d5dbdb)" stroke-linecap="square"/><use href="#icon-flow-choice"/></g><g class="text-lines" transform="translate(-48,-24.5)"><text transform="translate(0,17)" class="line1"><tspan xml:space="preserve" text-anchor="start">Choice state</tspan></text><text transform="translate(0,35.5)" class="line2 label"><tspan xml:space="preserve" text-anchor="start">CheckPredictFaultStatus</tspan></text></g></g></g></g><g class="node-container" transform="translate(135,858)"><g class="sc-yeoIj gTYSVF node state Task" data-testid="graph-NotifySuccess" data-state-id="NotifySuccess" data-state-type="Task"><g class="new-look-state-node "><rect x="-120" y="-24.5" width="240" height="49" rx="3" ry="3"/><g class="handle" transform="translate(-120,-24.5)"><path d="M5,16 L5,34 M8,16 L8,34"/></g><g class="icon" transform="translate(-104,-24)"><rect fill="var(--color-background-container-header-g9rg0j, #fafafa)" x="0.0361026108" y="0.0181291967" width="48" height="48"/><line x1="47.5" y1="0.49122807" x2="47.5" y2="47.5" stroke="var(--color-text-home-header-secondary-g5rqe4, #d5dbdb)" stroke-linecap="square"/><line x1="0.5" y1="0.49122807" x2="0.5" y2="47.5" stroke="var(--color-text-home-header-secondary-g5rqe4, #d5dbdb)" stroke-linecap="square"/><use href="#icon-service-lam"><title>Lambda</title></use></g><g class="text-lines" transform="translate(-48,-24.5)"><text transform="translate(0,17)" class="line1"><tspan xml:space="preserve" text-anchor="start">Lambda: Invoke</tspan></text><text transform="translate(0,35.5)" class="line2 label"><tspan xml:space="preserve" text-anchor="start">NotifySuccess</tspan></text></g></g></g></g><g class="node-container" transform="translate(120,1042.5)"><g class="sc-yeoIj gTYSVF node state Succeed" data-testid="graph-Success" data-state-id="Success" data-state-type="Succeed"><g class="new-look-state-node "><rect x="-120" y="-24.5" width="240" height="49" rx="3" ry="3"/><g class="handle" transform="translate(-120,-24.5)"><path d="M5,16 L5,34 M8,16 L8,34"/></g><g class="icon" transform="translate(-104,-24)"><rect fill="var(--color-background-container-header-g9rg0j, #fafafa)" x="0.0361026108" y="0.0181291967" width="48" height="48"/><line x1="47.5" y1="0.49122807" x2="47.5" y2="47.5" stroke="var(--color-text-home-header-secondary-g5rqe4, #d5dbdb)" stroke-linecap="square"/><line x1="0.5" y1="0.49122807" x2="0.5" y2="47.5" stroke="var(--color-text-home-header-secondary-g5rqe4, #d5dbdb)" stroke-linecap="square"/><use href="#icon-flow-succeed"/></g><g class="text-lines" transform="translate(-48,-24.5)"><text transform="translate(0,17)" class="line1"><tspan xml:space="preserve" text-anchor="start">Succeed state</tspan></text><text transform="translate(0,35.5)" class="line2 label"><tspan xml:space="preserve" text-anchor="start">Success</tspan></text></g></g></g></g><g class="node-container" transform="translate(500,1124)"><g><circle class="sc-gUAEMC nddC shape" r="22"/><text class="sc-hjriPb kjkSOY label"><tspan xml:space="preserve" text-anchor="middle" alignment-baseline="central">End</tspan></text></g></g><g class="node-container" transform="translate(812,1042.5)"><g class="sc-yeoIj gTYSVF node state Fail" data-testid="graph-Fail" data-state-id="Fail" data-state-type="Fail"><g class="new-look-state-node "><rect x="-120" y="-24.5" width="240" height="49" rx="3" ry="3"/><g class="handle" transform="translate(-120,-24.5)"><path d="M5,16 L5,34 M8,16 L8,34"/></g><g class="icon" transform="translate(-104,-24)"><rect fill="var(--color-background-container-header-g9rg0j, #fafafa)" x="0.0361026108" y="0.0181291967" width="48" height="48"/><line x1="47.5" y1="0.49122807" x2="47.5" y2="47.5" stroke="var(--color-text-home-header-secondary-g5rqe4, #d5dbdb)" stroke-linecap="square"/><line x1="0.5" y1="0.49122807" x2="0.5" y2="47.5" stroke="var(--color-text-home-header-secondary-g5rqe4, #d5dbdb)" stroke-linecap="square"/><use href="#icon-flow-fail"/></g><g class="text-lines" transform="translate(-48,-24.5)"><text transform="translate(0,17)" class="line1"><tspan xml:space="preserve" text-anchor="start">Fail state</tspan></text><text transform="translate(0,35.5)" class="line2 label"><tspan xml:space="preserve" text-anchor="start">Fail</tspan></text></g></g></g></g></g><g class="edges"><g class="sc-dWINGa ezdYXG edge"><path id="state-IngestData:state-WaitForIngestData:normal" d="M815.7916666666666,128L810.4097222222222,130.91666666666666C805.0277777777777,133.83333333333334,794.2638888888888,139.66666666666666,788.8819444444443,145.5C783.5,151.33333333333334,783.5,157.16666666666666,783.5,160.08333333333334L783.5,163" marker-end="url(#arrowhead)" fill="none"/></g><g class="sc-dWINGa ezdYXG edge"><path id="state-IngestData:state-NotifyFailure:catch:0" d="M981,114.67516629711751L1036.1666666666667,119.81263858093126C1091.3333333333333,124.95011086474501,1201.6666666666667,135.2250554323725,1256.8333333333333,147.36252771618624C1312,159.5,1312,173.5,1312,187.5C1312,201.5,1312,215.5,1312,229.5C1312,243.5,1312,257.5,1312,271.5C1312,285.5,1312,299.5,1312,313.5C1312,327.5,1312,341.5,1312,356.875C1312,372.25,1312,389,1312,405.75C1312,422.5,1312,439.25,1312,456C1312,472.75,1312,489.5,1312,506.25C1312,523,1312,539.75,1312,556.5C1312,573.25,1312,590,1312,606.75C1312,623.5,1312,640.25,1312,657C1312,673.75,1312,690.5,1312,707.25C1312,724,1312,740.75,1312,757.5C1312,774.25,1312,791,1312,807.75C1312,824.5,1312,841.25,1312,858C1312,874.75,1312,891.5,1248.6666666666667,906.2400000000001C1185.3333333333333,920.98,1058.6666666666667,933.71,995.3333333333334,940.0750000000002L932,946.44" marker-end="url(#arrowhead)" fill="none"/><g data-testid="graph-IngestData-0" class="edge-label" transform="translate(1256.8333333333333,147.36252771618624)"><rect x="-25" y="-8.25" width="50" height="16.5" class="sc-jGprRt fMvxcs"/><text class="sc-bPyhqo cIItVd label"><tspan xml:space="preserve" text-anchor="middle" alignment-baseline="central">Catch #1</tspan><title>Catch #1</title></text></g></g><g class="sc-dWINGa ezdYXG edge"><path id="start:state-IngestData" d="M861,44L861,46.916666666666664C861,49.833333333333336,861,55.666666666666664,861,61.5C861,67.33333333333333,861,73.16666666666667,861,76.08333333333333L861,79" marker-end="url(#arrowhead)" fill="none"/></g><g class="sc-dWINGa ezdYXG edge"><path id="state-WaitForIngestData:state-GetIngestDataStatus:normal" d="M738.2916666666666,212L732.9097222222222,214.91666666666666C727.5277777777777,217.83333333333334,716.7638888888888,223.66666666666666,711.3819444444443,229.5C706,235.33333333333334,706,241.16666666666666,706,244.08333333333334L706,247" marker-end="url(#arrowhead)" fill="none"/></g><g class="sc-dWINGa ezdYXG edge"><path id="state-GetIngestDataStatus:state-CheckIngestDataStatus:normal" d="M649.4166666666666,296L642.6805555555555,298.9166666666667C635.9444444444445,301.8333333333333,622.4722222222222,307.6666666666667,615.7361111111111,313.5C609,319.3333333333333,609,325.1666666666667,609,328.0833333333333L609,331" marker-end="url(#arrowhead)" fill="none"/></g><g class="sc-dWINGa ezdYXG edge"><path id="state-GetIngestDataStatus:state-NotifyFailure:catch:0" d="M826,284.13157894736844L872.5,289.0263157894737C919,293.92105263157896,1012,303.7105263157895,1058.5,315.60526315789474C1105,327.5,1105,341.5,1105,356.875C1105,372.25,1105,389,1105,405.75C1105,422.5,1105,439.25,1105,456C1105,472.75,1105,489.5,1105,506.25C1105,523,1105,539.75,1105,556.5C1105,573.25,1105,590,1105,606.75C1105,623.5,1105,640.25,1105,657C1105,673.75,1105,690.5,1105,707.25C1105,724,1105,740.75,1105,757.5C1105,774.25,1105,791,1105,807.75C1105,824.5,1105,841.25,1105,858C1105,874.75,1105,891.5,1076.1666666666667,904.8199658703071C1047.3333333333333,918.1399317406143,989.6666666666666,928.0298634812287,960.8333333333334,932.9748293515358L932,937.9197952218431" marker-end="url(#arrowhead)" fill="none"/><g data-testid="graph-GetIngestDataStatus-0" class="edge-label" transform="translate(1058.5,315.60526315789474)"><rect x="-25" y="-8.25" width="50" height="16.5" class="sc-jGprRt fMvxcs"/><text class="sc-bPyhqo cIItVd label"><tspan xml:space="preserve" text-anchor="middle" alignment-baseline="central">Catch #1</tspan><title>Catch #1</title></text></g></g><g class="sc-dWINGa ezdYXG edge"><path id="state-CheckIngestDataStatus:state-PredictFault:choiceRule:0" d="M555.8557213930349,380L546.5464344941958,384.2916666666667C537.2371475953565,388.5833333333333,518.6185737976783,397.1666666666667,509.30928689883916,405.75C500,414.3333333333333,500,422.9166666666667,500,427.2083333333333L500,431.5" marker-end="url(#arrowhead)" fill="none"/><g data-testid="graph-CheckIngestDataStatus-0" class="edge-label" transform="translate(509.30928689883916,405.75)"><rect x="-94" y="-8.25" width="188" height="16.5" class="sc-jGprRt fMvxcs"/><text class="sc-bPyhqo cIItVd label"><tspan xml:space="preserve" text-anchor="middle" alignment-baseline="central">$.ingest_status.status == "SUCCEEDED"</tspan><title>$.ingest_status.status == "SUCCEEDED"</title></text></g></g><g class="sc-dWINGa ezdYXG edge"><path id="state-CheckIngestDataStatus:state-NotifyFailure:choiceRule:1" d="M729,375.4668874172186L759.3333333333334,380.51407284768214C789.6666666666666,385.5612582781457,850.3333333333334,395.6556291390728,880.6666666666666,409.07781456953643C911,422.5,911,439.25,911,456C911,472.75,911,489.5,911,506.25C911,523,911,539.75,911,556.5C911,573.25,911,590,911,606.75C911,623.5,911,640.25,911,657C911,673.75,911,690.5,911,707.25C911,724,911,740.75,911,757.5C911,774.25,911,791,911,807.75C911,824.5,911,841.25,911,858C911,874.75,911,891.5,902.5447761194031,904.1666666666666C894.0895522388059,916.8333333333334,877.1791044776119,925.4166666666666,868.723880597015,929.7083333333334L860.2686567164179,934" marker-end="url(#arrowhead)" fill="none"/><g data-testid="graph-CheckIngestDataStatus-1" class="edge-label" transform="translate(880.6666666666666,409.07781456953643)"><rect x="-82" y="-8.25" width="164" height="16.5" class="sc-jGprRt fMvxcs"/><text class="sc-bPyhqo cIItVd label"><tspan xml:space="preserve" text-anchor="middle" alignment-baseline="central">$.ingest_status.status == "FAILED"</tspan><title>$.ingest_status.status == "FAILED"</title></text></g></g><g class="sc-dWINGa ezdYXG edge"><path id="state-CheckIngestDataStatus:state-WaitForIngestData:choiceDefault" d="M729,346.9358538657604L807.0833333333334,341.36321155480033C885.1666666666666,335.79056924384025,1041.3333333333333,324.64528462192015,1119.4166666666667,312.0726423109601C1197.5,299.5,1197.5,285.5,1197.5,271.5C1197.5,257.5,1197.5,243.5,1148.5,231.52898550724638C1099.5,219.55797101449275,1001.5,209.6159420289855,952.5,204.64492753623188L903.5,199.67391304347825" marker-end="url(#arrowhead)" fill="none"/><g data-testid="graph-CheckIngestDataStatus-Default" class="edge-label" transform="translate(1119.4166666666667,312.0726423109601)"><rect x="-22" y="-8.25" width="44" height="16.5" class="sc-jGprRt fMvxcs"/><text class="sc-bPyhqo cIItVd label"><tspan xml:space="preserve" text-anchor="middle" alignment-baseline="central">Default</tspan><title>Default</title></text></g></g><g class="sc-dWINGa ezdYXG edge"><path id="state-PredictFault:state-WaitForPredictFault:normal" d="M462.2139303482587,480.5L455.5949419568822,484.7916666666667C448.9759535655058,489.0833333333333,435.73797678275287,497.6666666666667,429.11898839137643,506.25C422.5,514.8333333333334,422.5,523.4166666666666,422.5,527.7083333333334L422.5,532" marker-end="url(#arrowhead)" fill="none"/></g><g class="sc-dWINGa ezdYXG edge"><path id="state-PredictFault:state-NotifyFailure:catch:0" d="M620,479.0152671755725L643.6666666666666,483.55438931297704C667.3333333333334,488.09351145038164,714.6666666666666,497.17175572519085,738.3333333333334,510.0858778625954C762,523,762,539.75,762,556.5C762,573.25,762,590,762,606.75C762,623.5,762,640.25,762,657C762,673.75,762,690.5,762,707.25C762,724,762,740.75,762,757.5C762,774.25,762,791,762,807.75C762,824.5,762,841.25,762,858C762,874.75,762,891.5,766.2703150912106,904.1666666666666C770.5406301824213,916.8333333333334,779.0812603648425,925.4166666666666,783.3515754560531,929.7083333333334L787.6218905472637,934" marker-end="url(#arrowhead)" fill="none"/><g data-testid="graph-PredictFault-0" class="edge-label" transform="translate(738.3333333333334,510.0858778625954)"><rect x="-25" y="-8.25" width="50" height="16.5" class="sc-jGprRt fMvxcs"/><text class="sc-bPyhqo cIItVd label"><tspan xml:space="preserve" text-anchor="middle" alignment-baseline="central">Catch #1</tspan><title>Catch #1</title></text></g></g><g class="sc-dWINGa ezdYXG edge"><path id="state-WaitForPredictFault:state-GetPredictFaultStatus:normal" d="M384.7139303482587,581L378.0949419568822,585.2916666666666C371.4759535655058,589.5833333333334,358.23797678275287,598.1666666666666,351.61898839137643,606.75C345,615.3333333333334,345,623.9166666666666,345,628.2083333333334L345,632.5" marker-end="url(#arrowhead)" fill="none"/></g><g class="sc-dWINGa ezdYXG edge"><path id="state-GetPredictFaultStatus:state-CheckPredictFaultStatus:normal" d="M296.7313432835821,681.5L288.2761194029851,685.7916666666666C279.82089552238807,690.0833333333334,262.910447761194,698.6666666666666,254.45522388059703,707.25C246,715.8333333333334,246,724.4166666666666,246,728.7083333333334L246,733" marker-end="url(#arrowhead)" fill="none"/></g><g class="sc-dWINGa ezdYXG edge"><path id="state-GetPredictFaultStatus:state-NotifyFailure:catch:0" d="M447.3880597014925,681.5L465.3233830845771,685.7916666666666C483.2587064676616,690.0833333333334,519.1293532338308,698.6666666666666,537.0646766169154,711.3333333333334C555,724,555,740.75,555,757.5C555,774.25,555,791,555,807.75C555,824.5,555,841.25,555,858C555,874.75,555,891.5,577.8333333333334,904.3394941634242C600.6666666666666,917.1789883268483,646.3333333333334,926.1079766536965,669.1666666666666,930.5724708171207L692,935.0369649805448" marker-end="url(#arrowhead)" fill="none"/><g data-testid="graph-GetPredictFaultStatus-0" class="edge-label" transform="translate(537.0646766169154,711.3333333333334)"><rect x="-25" y="-8.25" width="50" height="16.5" class="sc-jGprRt fMvxcs"/><text class="sc-bPyhqo cIItVd label"><tspan xml:space="preserve" text-anchor="middle" alignment-baseline="central">Catch #1</tspan><title>Catch #1</title></text></g></g><g class="sc-dWINGa ezdYXG edge"><path id="state-CheckPredictFaultStatus:state-NotifySuccess:choiceRule:0" d="M191.88059701492537,782L182.40049751243782,786.2916666666666C172.92039800995022,790.5833333333334,153.96019900497512,799.1666666666666,144.48009950248755,807.75C135,816.3333333333334,135,824.9166666666666,135,829.2083333333334L135,833.5" marker-end="url(#arrowhead)" fill="none"/><g data-testid="graph-CheckPredictFaultStatus-0" class="edge-label" transform="translate(144.48009950248755,807.75)"><rect x="-96" y="-8.25" width="192" height="16.5" class="sc-jGprRt fMvxcs"/><text class="sc-bPyhqo cIItVd label"><tspan xml:space="preserve" text-anchor="middle" alignment-baseline="central">$.predict_status.status == "SUCCEEDED"</tspan><title>$.predict_status.status == "SUCCEEDED"</title></text></g></g><g class="sc-dWINGa ezdYXG edge"><path id="state-CheckPredictFaultStatus:state-NotifyFailure:choiceRule:1" d="M300.11940298507466,782L309.59950248756223,786.2916666666666C319.07960199004975,790.5833333333334,338.0398009950249,799.1666666666666,347.5199004975125,811.8333333333334C357,824.5,357,841.25,357,858C357,874.75,357,891.5,412.8333333333333,906.0412087912088C468.6666666666667,920.5824175824176,580.3333333333334,932.9148351648352,636.1666666666666,939.081043956044L692,945.2472527472528" marker-end="url(#arrowhead)" fill="none"/><g data-testid="graph-CheckPredictFaultStatus-1" class="edge-label" transform="translate(347.5199004975125,811.8333333333334)"><rect x="-84" y="-8.25" width="168" height="16.5" class="sc-jGprRt fMvxcs"/><text class="sc-bPyhqo cIItVd label"><tspan xml:space="preserve" text-anchor="middle" alignment-baseline="central">$.predict_status.status == "FAILED"</tspan><title>$.predict_status.status == "FAILED"</title></text></g></g><g class="sc-dWINGa ezdYXG edge"><path id="state-CheckPredictFaultStatus:state-WaitForPredictFault:choiceDefault" d="M366,742.4813200498132L412.9166666666667,736.6094333748443C459.8333333333333,730.7375466998756,553.6666666666666,718.9937733499378,600.5833333333334,704.746886674969C647.5,690.5,647.5,673.75,647.5,657C647.5,640.25,647.5,623.5,628.2835820895522,610.8333333333334C609.0671641791045,598.1666666666666,570.634328358209,589.5833333333334,551.4179104477612,585.2916666666666L532.2014925373135,581" marker-end="url(#arrowhead)" fill="none"/><g data-testid="graph-CheckPredictFaultStatus-Default" class="edge-label" transform="translate(600.5833333333334,704.746886674969)"><rect x="-22" y="-8.25" width="44" height="16.5" class="sc-jGprRt fMvxcs"/><text class="sc-bPyhqo cIItVd label"><tspan xml:space="preserve" text-anchor="middle" alignment-baseline="central">Default</tspan><title>Default</title></text></g></g><g class="sc-dWINGa ezdYXG edge"><path id="state-NotifySuccess:state-Success:normal" d="M127.68656716417911,882.5L126.40547263681593,886.7916666666666C125.12437810945273,891.0833333333334,122.56218905472637,899.6666666666666,121.28109452736318,912.3333333333334C120,925,120,941.75,120,957.125C120,972.5,120,986.5,120,996.4166666666666C120,1006.3333333333334,120,1012.1666666666666,120,1015.0833333333334L120,1018" marker-end="url(#arrowhead)" fill="none"/></g><g class="sc-dWINGa ezdYXG edge"><path id="state-NotifySuccess:state-NotifyFailure:catch:0" d="M169.61691542288557,882.5L175.68076285240463,886.7916666666666C181.74461028192368,891.0833333333334,193.87230514096186,899.6666666666666,280.93615257048094,910.6749174917492C368,921.6831683168317,530,935.1163366336633,611,941.8329207920792L692,948.549504950495" marker-end="url(#arrowhead)" fill="none"/><g data-testid="graph-NotifySuccess-0" class="edge-label" transform="translate(280.93615257048094,910.6749174917492)"><rect x="-25" y="-8.25" width="50" height="16.5" class="sc-jGprRt fMvxcs"/><text class="sc-bPyhqo cIItVd label"><tspan xml:space="preserve" text-anchor="middle" alignment-baseline="central">Catch #1</tspan><title>Catch #1</title></text></g></g><g class="sc-dWINGa ezdYXG edge"><path id="state-Success:end:normal" d="M120,1067L120,1069.9166666666667C120,1072.8333333333333,120,1078.6666666666667,179.6863168366361,1087.787568899247C239.3726336732722,1096.9084711318271,358.7452673465444,1109.316942263654,418.4315841831805,1115.5211778295675L478.1179010198166,1121.725413395481" marker-end="url(#arrowhead)" fill="none"/></g><g class="sc-dWINGa ezdYXG edge"><path id="state-NotifyFailure:state-Fail:normal" d="M812,983L812,985.9166666666666C812,988.8333333333334,812,994.6666666666666,812,1000.5C812,1006.3333333333334,812,1012.1666666666666,812,1015.0833333333334L812,1018" marker-end="url(#arrowhead)" fill="none"/></g><g class="sc-dWINGa ezdYXG edge"><path id="state-Fail:end:normal" d="M812,1067L812,1069.9166666666667C812,1072.8333333333333,812,1078.6666666666667,763.6376302057282,1087.7061333553645C715.2752604114562,1096.7456000440625,618.5505208229125,1108.9912000881247,570.1881510286406,1115.114000110156L521.8257812343687,1121.2368001321872" marker-end="url(#arrowhead)" fill="none"/></g></g><defs><marker id="arrowhead" markerWidth="8" markerHeight="6" refX="7" refY="3" orient="auto" class="sc-caXVBt fFNoML"><polygon points="0 0, 8 3, 0 6"/></marker><marker id="highlighted-arrowhead" markerWidth="6" markerHeight="4" refX="5" refY="2" orient="auto" class="sc-caXVBt fFNoML"><polygon points="0 0, 6 2, 0 4"/></marker><marker id="error-arrowhead" markerWidth="6" markerHeight="4" refX="5" refY="2" orient="auto" class="sc-caXVBt fFNoML"><polygon points="0 0, 6 2, 0 4"/></marker><marker id="large-arrowhead" markerWidth="10" markerHeight="8" refX="9" refY="4" orient="auto" class="sc-caXVBt fFNoML"><polygon points="0 0, 10 4, 0 8"/></marker><marker id="large-highlighted-arrowhead" markerWidth="5.5" markerHeight="4" refX="4.5" refY="2" orient="auto" class="sc-caXVBt fFNoML"><polygon points="0 0, 5.5 2, 0 4"/></marker><marker id="large-error-arrowhead" markerWidth="10" markerHeight="8" refX="9" refY="4" orient="auto" class="sc-caXVBt fFNoML"><polygon points="0 0, 10 4, 0 8"/></marker><linearGradient x1="0%" y1="100%" x2="100%" y2="0%" id="gradient-orange"><stop stop-color="#C8511B" offset="0%"/><stop stop-color="#FF9900" offset="100%"/></linearGradient><linearGradient x1="0%" y1="100%" x2="100%" y2="0%" id="gradient-turquoise"><stop stop-color="#055F4E" offset="0%"/><stop stop-color="#56C0A7" offset="100%"/></linearGradient><linearGradient x1="0%" y1="100%" x2="100%" y2="0%" id="gradient-blue"><stop stop-color="#2E27AD" offset="0%"/><stop stop-color="#527FFF" offset="100%"/></linearGradient><linearGradient x1="0%" y1="100%" x2="100%" y2="0%" id="gradient-pink"><stop stop-color="#B0084D" offset="0%"/><stop stop-color="#FF4F8B" offset="100%"/></linearGradient><linearGradient x1="0%" y1="100%" x2="100%" y2="0%" id="gradient-red"><stop stop-color="#BD0816" offset="0%"/><stop stop-color="#FF5252" offset="100%"/></linearGradient><linearGradient x1="0%" y1="100%" x2="100%" y2="0%" id="gradient-green"><stop stop-color="#1B660F" offset="0%"/><stop stop-color="#6CAE3E" offset="100%"/></linearGradient><linearGradient x1="0%" y1="100%" x2="100%" y2="0%" id="gradient-purple"><stop stop-color="#4D27A8" offset="0%"/><stop stop-color="#A166FF" offset="100%"/></linearGradient><linearGradient x1="0%" y1="100%" x2="100%" y2="0%" id="gradient-grey"><stop stop-color="#DCDCDC" offset="0%"/><stop stop-color="#F6F5F7" offset="100%"/></linearGradient>,<linearGradient x1="0%" y1="100%" x2="100%" y2="0%" id="gradient-ag"><stop stop-color="#BC1356" offset="0%"/><stop stop-color="#F34482" offset="100%"/></linearGradient><linearGradient x1="0%" y1="100%" x2="100%" y2="0%" id="gradient-athena"><stop stop-color="#5930B5" offset="0%"/><stop stop-color="#945DF2" offset="100%"/></linearGradient><linearGradient x1="0%" y1="100%" x2="100%" y2="0%" id="gradient-emr"><stop stop-color="#5930B5" offset="0%"/><stop stop-color="#945DF2" offset="100%"/></linearGradient><linearGradient x1="0%" y1="100%" x2="100%" y2="0%" id="gradient-glue"><stop stop-color="#5930B5" offset="0%"/><stop stop-color="#945DF2" offset="100%"/></linearGradient><linearGradient x1="0%" y1="100%" x2="100%" y2="0%" id="gradient-sns"><stop stop-color="#BC1356" offset="0%"/><stop stop-color="#F34482" offset="100%"/></linearGradient><linearGradient x1="0%" y1="100%" x2="100%" y2="0%" id="gradient-states"><stop stop-color="#BC1356" offset="0%"/><stop stop-color="#F34482" offset="100%"/></linearGradient><linearGradient x1="0%" y1="100%" x2="100%" y2="0%" id="gradient-generic"><stop stop-color="#ccc" offset="0%"/><stop stop-color="#ddd" offset="100%"/></linearGradient><g stroke="none" stroke-width="1" fill="none" fill-rule="evenodd" id="icon-flow-wait"><path d="M26.75,8.85825893 L26.75,10.3582589 L25,10.3582589 L25.0010332,13.2887186 C27.2395643,13.4625704 29.3159269,14.2145278 31.0809903,15.3954598 L32.3188424,13.6912711 L34.7458934,15.4546269 L33.3682881,17.3513419 C35.4674483,19.6240431 36.75,22.6622436 36.75,26 C36.75,33.0416306 31.0416306,38.75 24,38.75 C16.9583694,38.75 11.25,33.0416306 11.25,26 C11.25,22.7657627 12.4542298,19.8127884 14.4387685,17.5649977 L12.9047966,15.4546269 L15.3318476,13.6912711 L16.6858812,15.555197 C18.2387522,14.4657629 20.0456704,13.7138336 22.0001068,13.4059384 L22,10.3582589 L20.25,10.3582589 L20.25,8.85825893 L26.75,8.85825893 Z M24,14.75 C17.7867966,14.75 12.75,19.7867966 12.75,26 C12.75,32.2132034 17.7867966,37.25 24,37.25 C30.2132034,37.25 35.25,32.2132034 35.25,26 C35.25,19.7867966 30.2132034,14.75 24,14.75 Z M24.4666648,19.3452148 L24.466,26.499 L30.9387207,26.4993034 L30.9387207,27.9993034 L23.7166648,27.9993034 C23.336969,27.9993034 23.0231738,27.7171495 22.9735114,27.3510739 L22.9666648,27.2493034 L22.9666648,19.3452148 L24.4666648,19.3452148 Z" fill="#0073BB" fill-rule="nonzero"/></g><g stroke="none" stroke-width="1" fill="none" fill-rule="evenodd" id="icon-flow-choice"><g transform="translate(9.252020, 8.729185)" fill="#0073BB" fill-rule="nonzero"><path d="M13.7176503,0.219669914 C13.9839168,-0.0465966484 14.4005805,-0.0708026996 14.694192,0.147051761 L14.7783104,0.219669914 L26.7991257,12.2404852 C27.0653923,12.5067518 27.0895983,12.9234154 26.8717439,13.2170269 L26.7991257,13.3011454 L19.848,20.251 L27.063,27.58 L27.0635443,24.4725437 C27.0635443,24.0583302 27.3993308,23.7225437 27.8135443,23.7225437 C28.1901021,23.7225437 28.5018441,24.0000532 28.5554124,24.3617142 L28.5635443,24.4725437 L28.5635443,29.4222912 C28.5635443,29.4735748 28.5583971,29.5236562 28.5485912,29.5720469 L28.5290567,29.6477745 L28.4912259,29.7440224 L28.4674556,29.7898473 L28.4399848,29.8348433 L28.3922808,29.8993609 L28.3266417,29.9693147 L28.2903734,30.0012261 L28.2103598,30.0588356 L28.1372883,30.0990133 L28.0408973,30.1372113 L27.9243738,30.1641593 C27.8841362,30.1698129 27.8491297,30.1722912 27.8135443,30.1722912 L22.8637969,30.1722912 C22.4495833,30.1722912 22.1137969,29.8365048 22.1137969,29.4222912 C22.1137969,29.0457334 22.3913063,28.7339914 22.7529674,28.6804231 L22.8637969,28.6722912 L26.032,28.672 L18.787,21.312 L14.7783104,25.3219606 C14.5120439,25.5882272 14.0953802,25.6124333 13.8017687,25.3945788 L13.7176503,25.3219606 L9.63,21.234 L2.386,28.671 L5.69974747,28.6722912 L5.81057697,28.6804231 C6.17223802,28.7339914 6.44974747,29.0457334 6.44974747,29.4222912 C6.44974747,29.801987 6.16759359,30.1157822 5.80151803,30.1654446 L5.69974747,30.1722912 L0.75,30.1722912 L0.645175107,30.1650238 L0.571316134,30.150876 L0.491748953,30.1266437 L0.399838514,30.0857012 L0.323957521,30.0396165 L0.243169757,29.975129 L0.170912131,29.8989347 L0.109961584,29.8134582 L0.0656949991,29.7297074 L0.0297396696,29.6320944 L0.0076057584,29.5294944 L6.67910172e-13,29.4222912 L6.67910172e-13,24.4725437 L0.00813192572,24.3617142 C0.0617002376,24.0000532 0.373442216,23.7225437 0.75,23.7225437 C1.12969577,23.7225437 1.44349096,24.0046976 1.49315338,24.3707732 L1.5,24.4725437 L1.499,27.433 L8.569,20.174 L1.69683498,13.3011454 C1.43056842,13.0348788 1.40636237,12.6182151 1.62421683,12.3246036 L1.69683498,12.2404852 L13.7176503,0.219669914 Z M14.3527697,23.728356 L25.2081355,12.7708153 L14.2479803,1.81066017 L3.28782524,12.7708153 L9.616,19.099 L14.3527697,23.728356 Z"/><path d="M15.2319803,14.0468153 L15.2319803,13.2668153 C16.0033137,12.8508153 16.5579803,12.4218153 16.8959803,11.9798153 C17.2339803,11.5378153 17.4029803,11.0178153 17.4029803,10.4198153 C17.4029803,9.65714861 17.151647,9.06131528 16.6489803,8.63231528 C16.1463137,8.20331528 15.448647,7.98881528 14.5559803,7.98881528 C13.6979803,7.98881528 12.874647,8.19248195 12.0859803,8.59981528 L12.0859803,8.59981528 L12.0859803,10.3288153 C12.8313137,9.98214861 13.4943137,9.80881528 14.0749803,9.80881528 C14.395647,9.80881528 14.6404803,9.87814861 14.8094803,10.0168153 C14.9784803,10.1554819 15.0629803,10.3591486 15.0629803,10.6278153 C15.0629803,10.9138153 14.9763137,11.1651486 14.8029803,11.3818153 C14.629647,11.5984819 14.343647,11.8151486 13.9449803,12.0318153 L13.9449803,12.0318153 L13.1909803,12.4348153 L13.3339803,14.0468153 L15.2319803,14.0468153 Z M14.3089803,17.4398153 C14.7249803,17.4398153 15.0608137,17.3141486 15.3164803,17.0628153 C15.572147,16.8114819 15.6999803,16.4821486 15.6999803,16.0748153 C15.6999803,15.6674819 15.572147,15.3381486 15.3164803,15.0868153 C15.0608137,14.8354819 14.7249803,14.7098153 14.3089803,14.7098153 C13.8929803,14.7098153 13.557147,14.8354819 13.3014803,15.0868153 C13.0458137,15.3381486 12.9179803,15.6674819 12.9179803,16.0748153 C12.9179803,16.4821486 13.0458137,16.8114819 13.3014803,17.0628153 C13.557147,17.3141486 13.8929803,17.4398153 14.3089803,17.4398153 Z"/></g></g><g stroke="none" stroke-width="1" fill="none" fill-rule="evenodd" id="icon-flow-succeed"><g transform="translate(11.250000, 12.250000)" fill="#2AB512" fill-rule="nonzero"><path d="M12.75,0 C5.70836944,0 0,5.70836944 0,12.75 C0,19.7916306 5.70836944,25.5 12.75,25.5 C19.7916306,25.5 25.5,19.7916306 25.5,12.75 C25.5,5.70836944 19.7916306,0 12.75,0 Z M12.75,1.5 C18.9632034,1.5 24,6.53679656 24,12.75 C24,18.9632034 18.9632034,24 12.75,24 C6.53679656,24 1.5,18.9632034 1.5,12.75 C1.5,6.53679656 6.53679656,1.5 12.75,1.5 Z"/><path d="M17.482151,9.3912361 C17.7750442,9.09834288 18.2499179,9.09834288 18.5428111,9.3912361 C18.8090777,9.65750266 18.8332838,10.0741663 18.6154293,10.3677778 L18.5428111,10.4518963 L11.1581958,17.8365117 C10.9013427,18.0933647 10.5030038,18.1258243 10.2104294,17.9293959 L10.1171609,17.8554362 L6.98253225,14.9408143 C6.67918728,14.6587599 6.66192789,14.1841999 6.94398232,13.8808549 C7.20039544,13.6050868 7.61590405,13.565753 7.91723953,13.7727921 L8.0039417,13.842305 L10.608,16.264 L17.482151,9.3912361 Z"/></g></g><g stroke="none" stroke-width="1" fill="none" fill-rule="evenodd" id="icon-flow-fail"><g transform="translate(11.250000, 12.250000)" fill="#D13212" fill-rule="nonzero"><path d="M12.75,0 C5.70836944,0 0,5.70836944 0,12.75 C0,19.7916306 5.70836944,25.5 12.75,25.5 C19.7916306,25.5 25.5,19.7916306 25.5,12.75 C25.5,5.70836944 19.7916306,0 12.75,0 Z M12.75,1.5 C18.9632034,1.5 24,6.53679656 24,12.75 C24,18.9632034 18.9632034,24 12.75,24 C6.53679656,24 1.5,18.9632034 1.5,12.75 C1.5,6.53679656 6.53679656,1.5 12.75,1.5 Z"/><path d="M16.5831403,8.21116377 C16.8767518,7.99330931 17.2934155,8.01751536 17.559682,8.28378193 C17.8259486,8.55004849 17.8501547,8.96671217 17.6323002,9.26032366 L17.559682,9.3444421 L13.622464,13.282112 L17.559682,17.2196699 C17.8525753,17.5125631 17.8525753,17.9874369 17.559682,18.2803301 C17.2934155,18.5465966 16.8767518,18.5708027 16.5831403,18.3529482 L16.4990219,18.2803301 L12.561464,14.343112 L8.62379406,18.2803301 L8.53967563,18.3529482 C8.24606413,18.5708027 7.82940045,18.5465966 7.56313389,18.2803301 C7.29686733,18.0140635 7.27266128,17.5973998 7.49051574,17.3037883 L7.56313389,17.2196699 L11.500464,13.282112 L7.56313389,9.3444421 C7.27024067,9.05154888 7.27024067,8.57667514 7.56313389,8.28378193 C7.82940045,8.01751536 8.24606413,7.99330931 8.53967563,8.21116377 L8.62379406,8.28378193 L12.561464,12.221112 L16.4990219,8.28378193 L16.5831403,8.21116377 Z"/></g></g><g stroke="none" stroke-width="1" fill="none" fill-rule="evenodd" id="icon-service-lam"><polygon fill="url(#gradient-orange)" fill-rule="nonzero" points="0 0 48 0 48 48 0 48"/><g transform="translate(11, 10)" fill="#FFFFFF"><path d="M26.5889213,27.8937088 L19.6925948,27.8937088 C19.4772752,27.8931074 19.2813916,27.7706914 19.1888047,27.578869 L9.43766764,7.45673404 L5.31218659,7.45673404 C5.00303594,7.45673404 4.75241983,7.20943823 4.75241983,6.90438337 L4.75241983,0.828526005 C4.75241983,0.523471153 5.00303594,0.276175335 5.31218659,0.276175335 L13.9325948,0.276175335 C14.1479143,0.276776788 14.3437979,0.399192787 14.4363848,0.591015217 L24.1427405,20.7131501 L26.5889213,20.7131501 C26.8980719,20.7131501 27.148688,20.9604459 27.148688,21.2655008 L27.148688,27.3413582 C27.148688,27.646413 26.8980719,27.8937088 26.5889213,27.8937088 Z M20.0452478,26.7890075 L26.0291545,26.7890075 L26.0291545,21.8178515 L23.7900875,21.8178515 C23.5747679,21.81725 23.3788843,21.694834 23.2862974,21.5030116 L13.5799417,1.38087667 L5.87755102,1.38087667 L5.87755102,6.3520327 L9.79591837,6.3520327 C10.0112379,6.35263416 10.2071215,6.47505016 10.2997085,6.66687259 L20.0452478,26.7890075 Z"/><path d="M8.10542274,27.8937099 L0.82845481,27.8937099 C0.635054571,27.8940907 0.455155006,27.7959347 0.352653061,27.634104 C0.243858391,27.4681848 0.233185428,27.2575536 0.324664723,27.0817533 L7.93749271,11.3894708 C8.03007964,11.1976484 8.22596323,11.0752324 8.4412828,11.0746298 L8.4412828,11.0746298 C8.65533487,11.0742082 8.85089022,11.1942751 8.94507289,11.3839473 L12.5891545,18.7799228 C12.6634688,18.931712 12.6634688,19.1086786 12.5891545,19.2604679 L8.6148105,27.5457279 C8.53147526,27.7523199 8.33072312,27.8894609 8.10542274,27.8937099 L8.10542274,27.8937099 Z M1.72408163,26.7890075 L7.75276968,26.7890075 L11.4640233,19.0560981 L8.44688047,12.8973881 L1.72408163,26.7890075 Z"/></g></g></defs></g><style data-styled="true" data-styled-version="5.3.5">.gTYSVF{cursor:pointer;}/*!sc*/
data-styled.g106[id="sc-yeoIj"]{content:"gTYSVF,"}/*!sc*/
.ezdYXG{stroke:#555;background-color:#555;stroke-width:1px;}/*!sc*/
data-styled.g107[id="sc-dWINGa"]{content:"ezdYXG,"}/*!sc*/
.fMvxcs{stroke-width:0;stroke:none;fill:#f2f3f3;}/*!sc*/
data-styled.g108[id="sc-jGprRt"]{content:"fMvxcs,"}/*!sc*/
.cIItVd{font-size:10px;line-height:12.5;stroke:none;}/*!sc*/
data-styled.g109[id="sc-bPyhqo"]{content:"cIItVd,"}/*!sc*/
.fFNoML{fill:var(--color-text-form-secondary-1c3szk,#687078);}/*!sc*/
data-styled.g119[id="sc-caXVBt"]{content:"fFNoML,"}/*!sc*/
.kjkSOY{font-weight:400;font-size:12px;line-height:16px;font-family:Amazon Ember,Arial,Roboto,Arial,sans-serif;text-shadow:none;fill:var(--color-text-body-default-7m2b3r,#16191f);}/*!sc*/
data-styled.g120[id="sc-hjriPb"]{content:"kjkSOY,"}/*!sc*/
.nddC{fill:#fff9cc;stroke:var(--color-text-form-secondary-1c3szk,#687078);stroke-width:0.6px;}/*!sc*/
data-styled.g121[id="sc-gUAEMC"]{content:"nddC,"}/*!sc*/
</style><style>
.new-look-state-node &gt; rect:first-of-type {
  stroke: #687078;
  stroke-width: 1px;
  fill: #FFFFFF;
}

.new-look-state-node .error-icon circle {
 stroke-linejoin: round;
}

.new-look-state-node .error-icon circle, .new-look-state-node .error-icon path {
 stroke: var(--color-border-status-error-fybu9w, #d13212);
 fill: none;
 stroke-width: 2px;
}

.new-look-state-node.has-errors &gt; rect:first-of-type {
 stroke: var(--color-border-status-error-fybu9w, #d13212);
 fill: var(--color-background-status-error-h1a0iq, #fdf3f1);
}

.new-look-state-node .handle path {
  stroke: var(--color-border-dropdown-item-hover-d32f3f, #879596);
  stroke-width: 1px;
  fill: none;
}

.new-look-state-node {
  font-weight: 400;
  font-family: Amazon Ember, Arial, Roboto, Arial, sans-serif;
  text-shadow: none;
}

.new-look-state-node .line1 {
  fill: #687078;
  font-size: 12px;
}

.selected.node &gt; .new-look-state-node &gt; rect,
.selected.node &gt; .new-look-state-node &gt; .new-look-state-node &gt; rect,
.selected.node &gt; .new-look-state-node &gt; .bounding-box &gt; .new-look-state-node-sub &gt; rect
 {
  stroke: var(--color-border-status-info-0iedcr, #0073bb);
  fill: var(--color-background-status-info-yq3r41, #f1faff);
  stroke-width: 1px;
}

.new-look-state-node-sub .item-source.not-specified {
  height: 15px;
  color: #687078;
  font-family: "Amazon Ember";
  font-size: 12px;
  letter-spacing: 0;
  line-height: 16px;
  font-weight: 400;
}
.new-look-state-node-sub .item-source .item-source_name{
  font-weight: 600;
}
.new-look-state-node-sub .item-source.not-specified .item-source_name{
  font-weight: 400;
}

.new-look-state-node-sub .item-source.not-specified {
  font-style: italic;
}



.new-look-state-node-sub .item-source
.selected.node &gt; .new-look-state-node.has-errors &gt; rect,
.selected.node &gt; .new-look-state-node.has-errors &gt; .new-look-state-node &gt; rect,
{
 stroke: var(--color-border-status-error-fybu9w, #d13212);
 fill: #fde0da;
}

.new-look-graph .drag-source {
  opacity: 0.2;
}

.new-look-graph .edge, .new-look-graph path.starting-connection {
  stroke-width: 1px;
  stroke: var(--color-text-form-secondary-1c3szk, #687078);
  marker-end: url(#large-arrowhead);
}

.new-look-graph .edge-label {
  cursor: pointer;
}

.new-look-graph .edge-label rect {
  stroke-width: 1px;
  stroke: var(--color-border-control-default-bwkbmv, #879596);
  fill: var(--color-background-container-header-g9rg0j, #fafafa);
}

.new-look-graph .edge-label.selected rect {
  stroke: var(--color-border-status-info-0iedcr, #0073bb);
  fill: var(--color-background-status-info-yq3r41, #f1faff);
  stroke-width: 0.6px;
}



.new-look-graph .edge-label .label {
  fill: var(--color-text-form-secondary-1c3szk, #687078);
  font-family: Amazon Ember, Arial, Roboto, Arial, sans-serif;
}

/* centering the shape text */
@-moz-document url-prefix() {
  .new-look-graph .shape + text,
  .new-look-graph .edge-label text {
    transform: translateY(3.5px);
  }
}

.new-look-graph .edge path {
  marker-end: url(#large-arrowhead) !important;
}

.new-look-graph .edge.selected path{
  stroke: var(--color-border-status-info-0iedcr, #0073bb);
  stroke-width: 1.1px;
}

.new-look-graph .edge.dragging-over path, .new-look-graph  g.dragging-over .starting-connection {
  stroke: #5C86FF;
  stroke-width: 2px;
}

.new-look-graph .edge.dragging-over path, .new-look-graph .dragging-over path.starting-connection {
  marker-end: url(#large-highlighted-arrowhead) !important;
}

.new-look-graph .edge.dragging-over .edge-label text {
  fill: #5C86FF;
}

#large-highlighted-arrowhead {
  fill: #5C86FF;
}

#large-highlighted-arrowhead path {
  stroke: none;
}

.new-look-graph .edge.drop-not-supported path, g.drop-not-supported .starting-connection {
  stroke: red;
}

.new-look-graph .edge.drop-not-supported .edge-label text {
  fill: red;
}

.new-look-graph .edge.drop-not-supported path {
  marker-end: url(#large-error-arrowhead) !important;
}

#large-error-arrowhead {
  fill: red;
}


.node.Placeholder.dragging-over rect {
  stroke: var(--color-border-status-info-0iedcr, #0073bb);
  fill: var(--color-background-status-info-yq3r41, #f1faff);
  stroke-width: 2px;
}

.node.Placeholder.dragging-over .label {
  fill: var(--color-text-status-info-09r23g, #0073bb);
}

g.Placeholder rect {
  stroke-dasharray: 5 4;
  stroke: var(--color-border-dropdown-item-hover-d32f3f, #879596);
  fill: var(--color-background-control-default-8xmy94, #ffffff);
  stroke-width: 1px;
}

g.Placeholder .label {
  font-style: italic;
  fill: var(--color-text-input-placeholder-rtvjp5, #687078);
}

.node.Placeholder.drop-not-supported rect {
  stroke: red;
}

.node.Placeholder.drop-not-supported .label {
  fill: red;
}
</style><style>.line2 { font-size: 14px }</style></svg>